<?xml version="1.0" encoding="UTF-8" standalone="no"?>
<!-- Created with Inkscape (http://www.inkscape.org/) -->

<svg
   width="132.29167mm"
   height="132.29167mm"
   viewBox="0 0 132.29167 132.29167"
   version="1.1"
   id="svg1"
   inkscape:version="1.4.3 (0d15f75, 2025-12-25)"
   sodipodi:docname="logo.svg"
   xmlns:inkscape="http://www.inkscape.org/namespaces/inkscape"
   xmlns:sodipodi="http://sodipodi.sourceforge.net/DTD/sodipodi-0.dtd"
   xmlns="http://www.w3.org/2000/svg"
   xmlns:svg="http://www.w3.org/2000/svg">
  <sodipodi:namedview
     id="namedview1"
     pagecolor="#ffffff"
     bordercolor="#000000"
     borderopacity="0.25"
     inkscape:showpageshadow="2"
     inkscape:pageopacity="0.0"
     inkscape:pagecheckerboard="0"
     inkscape:deskcolor="#d1d1d1"
     inkscape:document-units="mm"
     inkscape:zoom="0.98395993"
     inkscape:cx="281.51553"
     inkscape:cy="348.08328"
     inkscape:window-width="1920"
     inkscape:window-height="1057"
     inkscape:window-x="-8"
     inkscape:window-y="-8"
     inkscape:window-maximized="1"
     inkscape:current-layer="layer1" />
  <defs
     id="defs1" />
  <g
     inkscape:label="Livello 1"
     inkscape:groupmode="layer"
     id="layer1">
    <g
       id="g9"
       transform="matrix(7.5156972,0,0,7.5156972,-178.09561,-798.33127)">
      <path
         style="font-size:4.23333px;font-family:'Courier New';-inkscape-font-specification:'Courier New';text-align:center;baseline-shift:baseline;text-anchor:middle;display:inline;overflow:visible;vector-effect:none;stroke-linecap:round;stroke-linejoin:round;enable-background:accumulate;stop-color:#000000"
         d="m 29.715147,107.92018 c -0.0643,0.0167 -0.13918,0.0485 -0.194484,0.12875 -0.04515,0.0666 -0.06005,0.1629 -0.04203,0.23233 0.01827,0.0706 0.07521,0.14902 0.144173,0.18604 a 0.2050205,0.2050205 45 0 0 0.0063,0.003 c 0.09119,0.0439 0.168773,0.0315 0.23306,0.0149 l 0.202554,-0.053 0.414867,1.60767 -0.200841,0.0521 c -0.06484,0.0168 -0.139837,0.0496 -0.19526,0.1314 -0.04512,0.0666 -0.06005,0.1629 -0.04203,0.23233 0.01858,0.0718 0.07579,0.14696 0.142296,0.18261 0.09075,0.0487 0.173748,0.0371 0.240238,0.0199 l 1.858668,-0.48108 a 0.2050205,0.2050205 45 0 0 0.14628,-0.24933 l -0.215671,-0.83717 c -0.01696,-0.0654 -0.04779,-0.14384 -0.138582,-0.20024 -0.06337,-0.0392 -0.154614,-0.0554 -0.225146,-0.0371 -0.07062,0.0183 -0.147307,0.0743 -0.184327,0.14323 -0.04865,0.0908 -0.03708,0.17376 -0.01988,0.24024 l 0.121557,0.47009 -0.719383,0.1868 -0.417519,-1.60845 0.202554,-0.053 c 0.06429,-0.0166 0.138876,-0.0409 0.197299,-0.12361 a 0.2050205,0.2050205 45 0 0 0.005,-0.007 c 0.04246,-0.0658 0.0543,-0.16054 0.03595,-0.23122 -0.01781,-0.0688 -0.07567,-0.14571 -0.146664,-0.18245 -0.08956,-0.0468 -0.171843,-0.0361 -0.237587,-0.0191 l -0.969618,0.25033 a 0.2050205,0.2050205 45 0 0 -0.0018,9.6e-4 z m -2.341021,1.51559 -0.721986,0.70261 c -0.04829,0.0471 -0.09867,0.11406 -0.105654,0.21371 -0.0054,0.0798 0.02847,0.16906 0.07813,0.21998 0.05092,0.0522 0.139158,0.0902 0.217434,0.088 a 0.2050205,0.2050205 45 0 0 0.0087,-3.2e-4 c 0.100898,-0.007 0.161044,-0.0567 0.208571,-0.10303 l 0.02023,-0.02 1.15882,1.1892 -0.02023,0.02 c -0.04829,0.0471 -0.09697,0.11309 -0.103941,0.21278 -0.0054,0.0798 0.02847,0.16905 0.07813,0.21997 0.05177,0.0531 0.140296,0.091 0.215719,0.089 0.102915,-0.003 0.168115,-0.0554 0.217282,-0.10339 l 0.71856,-0.70072 c 0.04917,-0.048 0.101964,-0.11181 0.107367,-0.21466 0.0039,-0.0754 -0.0298,-0.16504 -0.08156,-0.2181 -0.04975,-0.051 -0.138206,-0.0889 -0.218207,-0.0854 -0.100089,0.004 -0.165484,0.0543 -0.213856,0.10151 l -0.280922,0.27183 -0.284474,-0.29181 0.242007,-0.23717 c 0.09566,-0.0933 0.170713,-0.18605 0.223535,-0.28717 0.06528,-0.12425 0.109265,-0.26187 0.132464,-0.40877 0.01878,-0.11756 0.0085,-0.23983 -0.02567,-0.36003 l -9.6e-4,-0.002 c -0.03673,-0.13281 -0.108604,-0.25297 -0.20726,-0.35413 -0.170111,-0.17445 -0.407522,-0.26405 -0.659927,-0.2577 -0.259765,0.005 -0.502812,0.12096 -0.702343,0.31552 z m 0.418087,0.40571 c 0.09853,-0.0961 0.187872,-0.13257 0.295639,-0.13515 0.117177,-0.003 0.175915,0.0231 0.230199,0.0788 0.03041,0.0312 0.05345,0.0702 0.06705,0.13475 a 0.2050205,0.2050205 45 0 0 -7.94e-4,0.003 c 0.01103,0.0493 0.0084,0.11709 -0.02273,0.21063 -0.03024,0.0885 -0.07674,0.16343 -0.146932,0.23187 l -0.249637,0.24356 -0.468862,-0.4781 z m 5.690815,-1.9981 c -0.312046,0.20187 -0.52506,0.5192 -0.633573,0.91694 -0.10819,0.39656 -0.08645,0.77908 0.0791,1.11237 a 0.2050205,0.2050205 45 0 0 9.6e-4,0.002 c 0.16372,0.32463 0.424592,0.55355 0.750327,0.64242 0.220629,0.0602 0.451305,0.0515 0.673037,-0.0234 0.225074,-0.075 0.422357,-0.21328 0.585449,-0.40295 a 0.2050205,0.2050205 45 0 0 0.0018,-9.6e-4 c 0.162637,-0.19017 0.278483,-0.41409 0.346697,-0.66412 0.06849,-0.25104 0.08194,-0.50475 0.03668,-0.75045 l -9.61e-4,-0.002 c -0.04429,-0.24502 -0.14452,-0.46453 -0.298446,-0.64267 -0.153003,-0.17708 -0.347028,-0.30147 -0.567658,-0.36166 -0.325735,-0.0889 -0.665718,-0.023 -0.971612,0.17349 a 0.2050205,0.2050205 45 0 0 -0.0018,9.6e-4 z m -7.931929,4.48106 c -0.178915,0.15085 -0.3077,0.34373 -0.370552,0.56362 -0.09279,0.32463 -0.03052,0.66728 0.162271,0.97552 0.198091,0.31446 0.514014,0.53275 0.910418,0.64606 0.395215,0.11296 0.779305,0.0946 1.114566,-0.0669 0.326573,-0.1598 0.558671,-0.41729 0.651467,-0.74193 0.06269,-0.21932 0.057,-0.45127 -0.01464,-0.67336 l -9.61e-4,-0.002 c -0.07243,-0.22521 -0.207205,-0.42522 -0.394377,-0.59014 a 0.2050205,0.2050205 45 0 0 -9.61e-4,-0.002 c -0.188147,-0.16484 -0.411624,-0.28163 -0.660812,-0.35286 -0.250197,-0.0715 -0.502827,-0.0886 -0.749062,-0.0463 l -0.0018,9.6e-4 c -0.245533,0.0413 -0.46566,0.13718 -0.645645,0.28894 z m 8.236539,-3.9776 c 0.186038,-0.13424 0.338555,-0.16374 0.515766,-0.11539 0.194412,0.053 0.306342,0.1577 0.38701,0.36927 0.08451,0.22162 0.09507,0.43673 0.03116,0.671 -0.06433,0.23579 -0.182713,0.41652 -0.3679,0.56439 -0.176406,0.14002 -0.326126,0.17139 -0.520906,0.11821 -0.160226,-0.0437 -0.27816,-0.14361 -0.381056,-0.35026 -0.09674,-0.1978 -0.11457,-0.4166 -0.03976,-0.69079 0.06958,-0.25502 0.191703,-0.43347 0.375691,-0.56643 z m -7.673122,4.31931 c 0.222623,-0.0818 0.439558,-0.0901 0.673038,-0.0234 0.234989,0.0672 0.413788,0.18812 0.559418,0.37508 0.137876,0.17808 0.167613,0.32791 0.112131,0.52201 -0.04565,0.15968 -0.146916,0.27646 -0.354795,0.37685 -0.198951,0.0943 -0.417845,0.10915 -0.691107,0.031 -0.254162,-0.0726 -0.432434,-0.19635 -0.56317,-0.38193 -0.131986,-0.18765 -0.158084,-0.3412 -0.107604,-0.51781 0.05538,-0.19375 0.159563,-0.30376 0.372089,-0.38187 z m 9.768204,-2.89234 c -0.290802,0.2905 -0.461701,0.6325 -0.48348,1.00399 a 0.2050205,0.2050205 45 0 0 9.6e-4,0.002 c -0.01906,0.36307 0.09068,0.69196 0.329299,0.93083 0.161623,0.1618 0.367723,0.2691 0.597355,0.31423 0.232614,0.0466 0.473558,0.0248 0.7093,-0.0588 0.235599,-0.0843 0.447453,-0.22234 0.630809,-0.40551 0.184081,-0.18389 0.321094,-0.3973 0.403797,-0.63303 0.08377,-0.23529 0.108057,-0.47516 0.06278,-0.70685 -0.04489,-0.22968 -0.151708,-0.43486 -0.313331,-0.59666 -0.23862,-0.23887 -0.567088,-0.35109 -0.93018,-0.3324 a 0.2050205,0.2050205 45 0 0 -0.0018,9.6e-4 c -0.371095,0.0203 -0.713893,0.19018 -1.00557,0.48155 z m -10.316823,5.75792 c -0.193409,0.15802 -0.337126,0.35243 -0.418233,0.57414 -0.0804,0.21977 -0.09423,0.44981 -0.03961,0.67189 0.08064,0.32787 0.303401,0.59329 0.623796,0.76513 0.32808,0.17461 0.71029,0.20736 1.110639,0.10889 0.399152,-0.0982 0.721743,-0.30415 0.932567,-0.61081 a 0.2050205,0.2050205 45 0 0 0.0018,-9.6e-4 c 0.20414,-0.30085 0.277053,-0.63919 0.196415,-0.96706 -0.05447,-0.22143 -0.174293,-0.419 -0.346654,-0.57619 l -9.6e-4,-0.002 c -0.174735,-0.15965 -0.391386,-0.26516 -0.635858,-0.31541 a 0.2050205,0.2050205 45 0 0 -9.6e-4,-0.002 c -0.245246,-0.0497 -0.498376,-0.0409 -0.750045,0.021 -0.253237,0.0623 -0.479842,0.17324 -0.672854,0.33278 z m 10.728995,-5.34676 c 0.187015,-0.18682 0.381703,-0.2818 0.60743,-0.30586 0.228139,-0.0242 0.374224,0.026 0.504043,0.156 0.142418,0.14257 0.188753,0.28889 0.153736,0.51259 -0.03669,0.23433 -0.134476,0.42806 -0.306273,0.59968 -0.172904,0.17273 -0.366245,0.27007 -0.600413,0.30648 -0.222645,0.0339 -0.368382,-0.0138 -0.511059,-0.15662 -0.116939,-0.11706 -0.168322,-0.26254 -0.155571,-0.49154 0.01424,-0.21972 0.10704,-0.41986 0.308109,-0.62072 z m -9.916032,5.58301 c 0.236748,-0.0582 0.45259,-0.0428 0.671279,0.0466 0.208101,0.0861 0.309222,0.20057 0.357436,0.3966 0.03967,0.16128 0.01045,0.3141 -0.120152,0.50446 -0.125854,0.18067 -0.308121,0.30092 -0.584103,0.3688 -0.256691,0.0631 -0.472832,0.0446 -0.678457,-0.0516 -0.207733,-0.0974 -0.307325,-0.21496 -0.351196,-0.39333 -0.04813,-0.19569 -0.01294,-0.34472 0.132757,-0.51804 0.15262,-0.18155 0.336634,-0.29551 0.572435,-0.35351 z m 1.687721,1.68341 -0.626292,0.59677 c -0.04922,0.0469 -0.102624,0.11098 -0.107205,0.21902 -0.003,0.0742 0.02704,0.16149 0.07703,0.2139 0.05028,0.0528 0.136647,0.0928 0.214944,0.0916 0.102913,-0.002 0.169448,-0.0526 0.21916,-0.0999 l 0.351121,-0.33477 0.513073,0.53852 -1.203717,1.1445 -0.142865,-0.15113 c -0.04578,-0.0481 -0.104517,-0.0995 -0.205154,-0.11034 a 0.2050205,0.2050205 45 0 0 -0.007,-5.9e-4 c -0.07815,-0.005 -0.167931,0.0305 -0.220749,0.0808 -0.0519,0.0494 -0.09018,0.13875 -0.0871,0.21915 0.0039,0.0987 0.05097,0.16551 0.09714,0.21402 l 0.691383,0.7259 c 0.04649,0.0488 0.110739,0.0993 0.210294,0.10753 0.07977,0.006 0.169361,-0.0273 0.22091,-0.0764 0.05282,-0.0503 0.09282,-0.13664 0.09162,-0.21494 a 0.2050205,0.2050205 45 0 0 -3.26e-4,-0.009 c -0.0059,-0.10105 -0.05385,-0.16233 -0.09963,-0.21042 l -0.144585,-0.15019 1.203717,-1.1445 0.144584,0.15018 c 0.04649,0.0489 0.11074,0.0993 0.210295,0.10753 0.07976,0.006 0.16936,-0.0273 0.220908,-0.0764 0.05371,-0.0511 0.09106,-0.13855 0.08991,-0.21401 -0.0017,-0.10291 -0.05264,-0.16944 -0.09995,-0.21916 l -1.321876,-1.38939 a 0.2050205,0.2050205 45 0 0 -0.289631,-0.008 z m 9.018928,-4.63088 c -0.07246,0.0159 -0.150002,0.0712 -0.188079,0.13639 -0.05191,0.0889 -0.0434,0.1735 -0.02861,0.24056 l 0.215743,0.97965 c 0.01477,0.0671 0.04289,0.14529 0.127365,0.20415 0.06193,0.0431 0.154754,0.0608 0.227184,0.0448 0.0701,-0.0154 0.149015,-0.0701 0.18792,-0.14074 0.04886,-0.0871 0.04158,-0.1694 0.02706,-0.23526 l -0.08322,-0.37974 0.397032,-0.0882 0.07442,0.33112 c 0.02878,0.13046 0.06834,0.24233 0.126341,0.34054 0.07114,0.12099 0.164506,0.22984 0.277051,0.32706 0.08998,0.0784 0.198828,0.13358 0.319192,0.16814 5.4e-4,1.6e-4 0.0012,-0.001 0.0018,-9.6e-4 5.44e-4,1.6e-4 4.16e-4,0.002 9.61e-4,0.002 0.13201,0.0387 0.273452,0.0413 0.41122,0.0109 0.237944,-0.0525 0.436743,-0.20713 0.564528,-0.42489 0.131839,-0.22321 0.165125,-0.49189 0.105241,-0.76349 l -0.217619,-0.98308 c -0.01454,-0.066 -0.0434,-0.14481 -0.124716,-0.20337 -0.06493,-0.0469 -0.159463,-0.0636 -0.229061,-0.0483 -0.07129,0.0156 -0.15028,0.0696 -0.189792,0.13732 a 0.2050205,0.2050205 45 0 0 -0.005,0.007 c -0.04725,0.0896 -0.03622,0.1676 -0.02192,0.23245 l 0.0063,0.0277 -1.621167,0.35769 -0.0063,-0.0277 c -0.01454,-0.066 -0.04337,-0.1448 -0.124716,-0.20337 -0.06493,-0.0469 -0.159462,-0.0636 -0.22906,-0.0483 z m 1.454565,0.63537 0.653672,-0.14415 0.08763,0.40405 c 0.02963,0.13439 0.01418,0.22764 -0.04048,0.32055 -0.05944,0.10102 -0.113208,0.13804 -0.189143,0.15477 -0.04253,0.009 -0.08626,0.008 -0.14826,-0.0146 a 0.2050205,0.2050205 45 0 0 -0.0027,-8e-4 c -0.04761,-0.0166 -0.104519,-0.0553 -0.167461,-0.13098 l -9.61e-4,-0.002 c -0.05848,-0.072 -0.09665,-0.15229 -0.11761,-0.24735 z m -1.19585,1.87056 c -0.0892,0.0515 -0.123569,0.12687 -0.144033,0.19243 l -0.571474,1.83153 a 0.2050205,0.2050205 45 0 0 0.134588,0.25809 l 0.824218,0.25681 c 0.06487,0.0202 0.148537,0.0367 0.245176,-0.0118 0.06601,-0.0335 0.126763,-0.10357 0.148272,-0.17249 0.02174,-0.0696 0.01473,-0.16374 -0.02438,-0.23159 -0.05146,-0.0892 -0.128576,-0.12263 -0.19414,-0.14309 l -0.462563,-0.14532 0.220055,-0.70834 1.586523,0.49408 -0.0625,0.199 c -0.01973,0.0633 -0.03664,0.1393 0.0026,0.23241 a 0.2050205,0.2050205 45 0 0 0.002,0.008 c 0.03359,0.0707 0.110042,0.13151 0.179656,0.15325 0.06785,0.0212 0.162755,0.0122 0.231431,-0.0287 0.08569,-0.0514 0.122226,-0.1271 0.14232,-0.19148 l 0.29822,-0.95601 c 0.01997,-0.0639 0.03402,-0.14467 -0.0061,-0.23489 -0.03222,-0.0745 -0.109021,-0.13698 -0.17811,-0.15855 -0.06962,-0.0217 -0.163749,-0.0147 -0.231592,0.0244 a 0.2050205,0.2050205 45 0 0 -0.0086,0.005 c -0.08546,0.0543 -0.112095,0.12684 -0.131879,0.19023 l -0.0625,0.199 -1.586524,-0.49409 0.06156,-0.20071 c 0.02012,-0.0644 0.03421,-0.14556 -0.0071,-0.23661 -0.03318,-0.0727 -0.106688,-0.13488 -0.174525,-0.15606 -0.07079,-0.0221 -0.165273,-0.0116 -0.230655,0.0261 z m -6.676666,4.08546 c -0.0678,0.0331 -0.128585,0.10674 -0.149826,0.17778 -0.0205,0.0686 -0.0085,0.16475 0.03404,0.23298 0.05237,0.0829 0.125707,0.11979 0.189613,0.13889 l 0.374749,0.11101 -0.118309,0.38988 -0.324378,-0.0963 c -0.128006,-0.0383 -0.245496,-0.0577 -0.359539,-0.0548 -0.140309,0.003 -0.281236,0.0301 -0.420892,0.0813 -0.113098,0.0408 -0.213702,0.10983 -0.302859,0.19923 -0.09836,0.0967 -0.168271,0.21931 -0.208775,0.3548 -0.06977,0.23344 -0.03385,0.48347 0.09434,0.70098 0.130876,0.22445 0.350684,0.38136 0.617697,0.46119 l 0.966117,0.28822 c 0.06458,0.0193 0.145253,0.0334 0.235671,-0.009 0.07301,-0.0337 0.133673,-0.10934 0.15419,-0.17795 0.02083,-0.0698 0.01275,-0.16506 -0.02703,-0.23236 a 0.2050205,0.2050205 45 0 0 -0.0037,-0.007 c -0.05531,-0.0848 -0.129256,-0.11363 -0.192876,-0.13265 l -0.02651,-0.008 0.475525,-1.59195 0.02745,0.009 c 0.06459,0.0193 0.146025,0.0308 0.236446,-0.0114 0.07301,-0.0337 0.133673,-0.10935 0.15419,-0.17795 0.02117,-0.071 0.01053,-0.16485 -0.0278,-0.22972 -0.05249,-0.0886 -0.129117,-0.12077 -0.194915,-0.14044 l -0.960814,-0.28668 a 0.2050205,0.2050205 45 0 0 -9.6e-4,-0.002 c -0.06578,-0.0196 -0.148362,-0.0336 -0.240811,0.0116 z m -0.642956,1.57897 a 0.2050205,0.2050205 45 0 0 0.0034,-0.002 c 0.03762,-0.0335 0.09872,-0.0642 0.195335,-0.0825 0.09201,-0.0166 0.18029,-0.0112 0.274213,0.0169 l 0.333269,0.10032 -0.191172,0.63909 -0.395959,-0.11721 c -0.131861,-0.0394 -0.206002,-0.0984 -0.26062,-0.19131 -0.05942,-0.10103 -0.06537,-0.16688 -0.04309,-0.24139 0.01247,-0.0417 0.03484,-0.0787 0.0846,-0.12203 z m 3.481564,-1.51883 c -0.222719,0.0519 -0.422163,0.16948 -0.581654,0.34074 -0.161749,0.1728 -0.270169,0.38969 -0.323365,0.63353 -0.05267,0.24463 -0.04924,0.4972 0.0096,0.7496 0.05922,0.25398 0.169674,0.4834 0.32687,0.67832 0.155374,0.19423 0.346608,0.34116 0.566512,0.42463 0.218793,0.0831 0.449498,0.10027 0.672217,0.0483 0.328821,-0.0767 0.596777,-0.29616 0.772476,-0.61446 a 0.2050205,0.2050205 45 0 0 0.0018,-9.6e-4 c 0.178554,-0.32594 0.214836,-0.70696 0.121211,-1.10847 -0.09335,-0.40031 -0.295668,-0.72634 -0.599762,-0.94085 a 0.2050205,0.2050205 45 0 0 -9.6e-4,-0.002 c -0.298366,-0.20776 -0.636081,-0.28541 -0.964899,-0.20873 z m 2.095537,-1.11397 c -0.167543,0.15566 -0.280473,0.358 -0.333885,0.58585 -0.05457,0.23026 -0.04226,0.47225 0.03262,0.71028 0.07574,0.23849 0.204342,0.45672 0.380753,0.64659 0.177092,0.19061 0.385534,0.33414 0.618108,0.42533 0.232101,0.0922 0.471055,0.12334 0.704232,0.0865 0.231152,-0.0365 0.441315,-0.1354 0.608856,-0.29106 0.247353,-0.22982 0.369903,-0.55298 0.364375,-0.91651 a 0.2050205,0.2050205 45 0 0 0.0018,-9.6e-4 c -0.0068,-0.37159 -0.165731,-0.72058 -0.446352,-1.02262 -0.279781,-0.30113 -0.61566,-0.48476 -0.986128,-0.51998 a 0.2050205,0.2050205 45 0 0 -0.0018,9.6e-4 c -0.362143,-0.0322 -0.695225,0.0658 -0.94258,0.29565 z m -1.962442,1.6824 c 0.161295,-0.0376 0.313146,-0.006 0.50119,0.12639 0.179136,0.12803 0.29741,0.31108 0.361954,0.58785 0.06003,0.25744 0.03833,0.47434 -0.06033,0.67879 -0.09964,0.20501 -0.220561,0.30371 -0.398803,0.34528 -0.196251,0.0458 -0.34322,0.009 -0.51477,-0.139 -0.179705,-0.1548 -0.291513,-0.3397 -0.346654,-0.57619 -0.0555,-0.23801 -0.03727,-0.45347 0.05535,-0.6716 0.08863,-0.20705 0.205463,-0.30568 0.402066,-0.35153 z m 2.35952,-1.25407 c 0.121228,-0.11263 0.269875,-0.16025 0.49827,-0.13921 0.219064,0.0222 0.415002,0.12221 0.608448,0.33042 0.179924,0.19366 0.266781,0.39146 0.282657,0.61791 0.01587,0.22886 -0.03999,0.37358 -0.174563,0.49861 -0.147631,0.13717 -0.293606,0.1786 -0.51589,0.13551 -0.232847,-0.0452 -0.422117,-0.15069 -0.587402,-0.32859 -0.166351,-0.17905 -0.257073,-0.37462 -0.284982,-0.60995 -0.02587,-0.22373 0.02557,-0.36729 0.173462,-0.5047 z"
         id="path9" />
      <path
         style="font-size:4.23333px;font-family:'Courier New';-inkscape-font-specification:'Courier New';text-align:center;baseline-shift:baseline;text-anchor:middle;display:inline;overflow:visible;vector-effect:none;fill:#ffffff;fill-opacity:1;stroke-linecap:round;stroke-linejoin:round;enable-background:accumulate;stop-color:#000000"
         d="m 38.125694,113.33717 -0.799353,0.17625 0.128179,0.58134 q 0.01335,0.0606 -0.0051,0.0922 -0.01641,0.0311 -0.05479,0.0396 -0.03634,0.008 -0.06634,-0.0129 -0.03001,-0.0209 -0.04335,-0.0815 l -0.215858,-0.97901 q -0.01335,-0.0606 0.0051,-0.0921 0.01844,-0.0316 0.05479,-0.0396 0.03835,-0.008 0.06634,0.0129 0.03,0.0209 0.04335,0.0815 l 0.0503,0.22809 2.022609,-0.44595 -0.05029,-0.2281 q -0.01335,-0.0606 0.0031,-0.0917 0.01844,-0.0316 0.05681,-0.04 0.03835,-0.008 0.06634,0.0129 0.03001,0.0209 0.04335,0.0815 l 0.217193,0.98506 q 0.077,0.34922 -0.08038,0.61464 -0.156938,0.26744 -0.433481,0.32841 -0.163503,0.0361 -0.310734,-0.008 -0.146785,-0.0417 -0.243725,-0.12619 -0.146419,-0.12647 -0.23451,-0.27638 -0.06415,-0.10863 -0.102444,-0.28222 z m 0.16956,-0.0374 0.119278,0.54098 q 0.04139,0.18772 0.160203,0.33298 0.121277,0.14683 0.258858,0.19482 0.138024,0.05 0.263178,0.0224 0.19984,-0.0441 0.321477,-0.25079 0.121636,-0.20674 0.06378,-0.46916 l -0.133075,-0.60355 z m 1.067746,3.51236 -1.97711,-0.61714 -0.343678,1.10102 0.659037,0.20572 q 0.05919,0.0185 0.07746,0.0502 0.01826,0.0317 0.0066,0.0692 -0.01108,0.0355 -0.04413,0.0512 -0.03107,0.0163 -0.09224,-0.003 l -0.824783,-0.25745 0.571565,-1.8311 q 0.01848,-0.0592 0.05016,-0.0775 0.03168,-0.0183 0.0672,-0.007 0.03749,0.0117 0.05118,0.0441 0.01569,0.033 -0.0028,0.0922 l -0.123182,0.39463 1.97711,0.61714 0.123182,-0.39463 q 0.01848,-0.0592 0.04819,-0.0781 0.03168,-0.0183 0.06918,-0.007 0.03749,0.0117 0.05118,0.0441 0.01569,0.033 -0.0028,0.0922 l -0.298716,0.95698 q -0.01848,0.0592 -0.05016,0.0775 -0.02971,0.0189 -0.0672,0.007 -0.03749,-0.0117 -0.05316,-0.0447 -0.01366,-0.0324 0.0048,-0.0916 z m -3.531334,3.34843 q -0.236374,-0.25441 -0.335999,-0.56814 -0.09822,-0.31222 -0.02906,-0.60221 0.06765,-0.28857 0.27511,-0.48133 0.307409,-0.28561 0.784126,-0.24322 0.47661,0.0453 0.85649,0.45417 0.381285,0.41038 0.390076,0.88752 0.0073,0.47854 -0.300131,0.76415 -0.207464,0.19275 -0.500224,0.23904 -0.292761,0.0463 -0.596931,-0.0746 -0.305683,-0.11947 -0.543459,-0.37539 z m 0.128718,-0.1196 q 0.288426,0.31044 0.697966,0.38985 0.409538,0.0794 0.695746,-0.18651 0.268034,-0.24903 0.239355,-0.66254 -0.02879,-0.41059 -0.338317,-0.74375 -0.329229,-0.35435 -0.737243,-0.39567 -0.408121,-0.0384 -0.657985,0.19375 -0.286206,0.26591 -0.238484,0.67866 0.04913,0.41426 0.338959,0.72622 z m -3.149509,1.10883 q -0.07886,-0.3382 -0.0096,-0.66 0.06976,-0.31978 0.273776,-0.53715 0.202,-0.21691 0.477787,-0.28122 0.40865,-0.0953 0.801411,0.1782 0.391217,0.27597 0.51796,0.81949 0.127209,0.54554 -0.102063,0.96407 -0.231286,0.419 -0.639935,0.51429 -0.275787,0.0643 -0.552894,-0.0409 -0.277105,-0.10519 -0.481118,-0.36114 -0.206029,-0.25547 -0.285353,-0.59568 z m 0.17111,-0.0399 q 0.09623,0.41267 0.412298,0.68494 0.316066,0.27227 0.696533,0.18355 0.356308,-0.0831 0.536727,-0.45627 0.178874,-0.37069 0.0756,-0.81357 -0.109842,-0.47105 -0.443489,-0.7095 -0.335194,-0.23597 -0.667348,-0.15852 -0.380467,0.0887 -0.543977,0.47069 -0.16304,0.38399 -0.06634,0.79867 z m -1.845629,-0.39122 0.234449,-0.78426 -0.570371,-0.17051 q -0.05941,-0.0178 -0.07805,-0.0492 -0.01923,-0.0295 -0.008,-0.0671 0.01066,-0.0357 0.04351,-0.0517 0.03286,-0.016 0.09226,0.002 l 0.960521,0.28714 q 0.05941,0.0178 0.07805,0.0492 0.01861,0.0315 0.008,0.0671 -0.01125,0.0376 -0.04351,0.0517 -0.03286,0.0161 -0.09226,-0.002 l -0.223791,-0.0669 -0.593227,1.98441 0.223791,0.0669 q 0.05941,0.0178 0.07864,0.0473 0.01861,0.0315 0.0074,0.0691 -0.01125,0.0376 -0.04351,0.0517 -0.03286,0.0161 -0.09226,-0.002 l -0.966461,-0.28892 q -0.342619,-0.10243 -0.498101,-0.36897 -0.157442,-0.26714 -0.07635,-0.53845 0.04796,-0.16042 0.157734,-0.26783 0.107797,-0.10801 0.228726,-0.15169 0.18169,-0.0665 0.355518,-0.0706 0.126115,-0.003 0.296434,0.0476 z m -0.04973,0.16636 -0.530762,-0.15867 q -0.184182,-0.0551 -0.368873,-0.0218 -0.187263,0.0346 -0.296064,0.13155 -0.11078,0.0963 -0.147486,0.21912 -0.05861,0.19607 0.06296,0.40284 0.121547,0.2068 0.379026,0.28375 l 0.592156,0.17702 z m -3.588577,-0.77382 1.500224,-1.42799 -0.795229,-0.83545 -0.500074,0.47599 q -0.04492,0.0428 -0.08146,0.0434 -0.03656,5.6e-4 -0.06365,-0.0279 -0.02569,-0.0269 -0.02329,-0.0634 8.66e-4,-0.0351 0.04728,-0.0792 l 0.625842,-0.59571 1.322529,1.38943 q 0.04275,0.0449 0.04335,0.0815 5.59e-4,0.0366 -0.02639,0.0622 -0.02845,0.0271 -0.06344,0.0233 -0.03649,-0.002 -0.07924,-0.0473 l -0.285028,-0.29944 -1.500223,1.42799 0.285028,0.29944 q 0.04275,0.0449 0.04481,0.0801 5.59e-4,0.0366 -0.02789,0.0637 -0.02845,0.0271 -0.06344,0.0233 -0.03649,-0.002 -0.07925,-0.0473 l -0.691193,-0.72615 q -0.04275,-0.0449 -0.04335,-0.0815 -0.0021,-0.0351 0.02639,-0.0622 0.02845,-0.0271 0.06493,-0.0247 0.035,0.004 0.07775,0.0487 z m -1.210192,-4.71358 q 0.337214,-0.0829 0.659828,-0.0175 0.320605,0.0659 0.540425,0.26727 0.219327,0.19937 0.286963,0.47436 0.100216,0.40747 -0.168509,0.8035 -0.271227,0.39452 -0.813182,0.52781 -0.543962,0.13379 -0.965233,-0.0904 -0.421765,-0.22621 -0.52198,-0.63368 -0.06764,-0.27499 0.0342,-0.55334 0.101832,-0.27836 0.355297,-0.48545 0.252972,-0.20909 0.592193,-0.29252 z m 0.04197,0.17062 q -0.411484,0.1012 -0.679915,0.42053 -0.268432,0.31933 -0.175128,0.6987 0.08738,0.35528 0.462713,0.53118 0.372831,0.17439 0.814423,0.0658 0.469694,-0.11552 0.704103,-0.45202 0.231906,-0.33802 0.15045,-0.66922 -0.09331,-0.37937 -0.477225,-0.53825 -0.385927,-0.15839 -0.799418,-0.0567 z m 0.56158,-3.29143 q 0.333892,0.0954 0.581456,0.31239 0.245576,0.21638 0.3364,0.50033 0.09139,0.28195 0.01357,0.55423 -0.115323,0.40346 -0.54522,0.6138 -0.431318,0.20779 -0.96793,0.0544 -0.538601,-0.15396 -0.792958,-0.55774 -0.253787,-0.40577 -0.138467,-0.80922 0.07783,-0.27228 0.304428,-0.46334 0.226599,-0.19106 0.549436,-0.24497 0.323405,-0.0559 0.659286,0.0401 z m -0.04829,0.16893 q -0.407429,-0.11646 -0.798987,0.0274 -0.391557,0.14391 -0.498927,0.51954 -0.100553,0.35178 0.137912,0.69082 0.237046,0.33649 0.674285,0.46147 0.465066,0.13293 0.835617,-0.0428 0.369129,-0.17827 0.462866,-0.5062 0.10737,-0.37563 -0.146996,-0.70417 -0.256354,-0.3291 -0.66577,-0.44613 z m 1.238878,-1.42287 0.571472,0.58605 0.426215,-0.41562 q 0.0444,-0.0433 0.08095,-0.0443 0.03511,-0.002 0.06254,0.0256 0.02598,0.0266 0.02408,0.0631 -0.0019,0.0365 -0.04632,0.0798 l -0.717759,0.69991 q -0.04439,0.0433 -0.08095,0.0443 -0.03655,0.001 -0.06254,-0.0256 -0.02742,-0.0281 -0.02408,-0.0632 0.0019,-0.0365 0.04632,-0.0798 l 0.167231,-0.16307 -1.445999,-1.48288 -0.167231,0.16308 q -0.04439,0.0433 -0.07949,0.0458 -0.03656,10e-4 -0.06397,-0.0271 -0.02742,-0.0281 -0.02408,-0.0631 0.0019,-0.0365 0.04632,-0.0798 l 0.722197,-0.70424 q 0.256028,-0.24966 0.564533,-0.25601 0.309989,-0.008 0.507694,0.19496 0.116893,0.11987 0.157456,0.268 0.04201,0.1467 0.02141,0.27361 -0.03018,0.19111 -0.111052,0.34504 -0.05841,0.11182 -0.185688,0.23592 z m -0.121217,-0.12431 0.396617,-0.38676 q 0.137632,-0.13421 0.198337,-0.31178 0.06074,-0.18049 0.02891,-0.32268 -0.03035,-0.14363 -0.119864,-0.23536 -0.142868,-0.14651 -0.382667,-0.14076 -0.239799,0.006 -0.432186,0.19336 l -0.442494,0.43149 z m 2.420318,-2.76022 0.518907,2.00513 1.116632,-0.28897 -0.172969,-0.66838 q -0.01553,-0.06 0.0017,-0.0923 0.01728,-0.0322 0.0553,-0.0421 0.03601,-0.009 0.06677,0.0105 0.03023,0.0178 0.04632,0.0798 l 0.21647,0.83648 -1.85705,0.48058 q -0.06003,0.0155 -0.09227,-0.002 -0.03223,-0.0173 -0.04155,-0.0533 -0.0099,-0.038 0.01048,-0.0668 0.0198,-0.0307 0.07981,-0.0463 l 0.400227,-0.10358 -0.518908,-2.00513 -0.400226,0.10357 q -0.06003,0.0155 -0.09175,2.6e-4 -0.03223,-0.0173 -0.04207,-0.0553 -0.0099,-0.038 0.01048,-0.0668 0.0198,-0.0307 0.07981,-0.0463 l 0.97055,-0.25117 q 0.06003,-0.0155 0.09226,0.002 0.03171,0.0153 0.04155,0.0533 0.0099,0.038 -0.01,0.0688 -0.02032,0.0288 -0.08035,0.0443 z m 4.707626,1.23311 q -0.0914,0.33502 -0.305349,0.58519 -0.213403,0.24817 -0.496226,0.34242 -0.280833,0.0948 -0.554034,0.0203 -0.404816,-0.11045 -0.620336,-0.53777 -0.212982,-0.42878 -0.06609,-0.96721 0.147438,-0.54042 0.548118,-0.79963 0.402674,-0.25867 0.807492,-0.14823 0.273201,0.0745 0.466983,0.29881 0.193781,0.22428 0.251584,0.54644 0.0598,0.32271 -0.03215,0.65973 z m -0.16951,-0.0462 q 0.111531,-0.4088 -0.0371,-0.7986 -0.148623,-0.38979 -0.525524,-0.49262 -0.352969,-0.0963 -0.689106,0.14625 -0.333602,0.24108 -0.453293,0.6798 -0.127309,0.46664 0.05286,0.83504 0.182712,0.36696 0.511749,0.45673 0.376898,0.10282 0.702341,-0.15549 0.32599,-0.26031 0.438064,-0.67111 z m 2.60366,2.09042 q -0.24568,0.24543 -0.555604,0.35635 -0.308461,0.10946 -0.600756,0.0508 -0.290835,-0.0572 -0.490975,-0.2575 -0.296557,-0.29687 -0.271462,-0.77481 0.02802,-0.47794 0.422862,-0.87237 0.396306,-0.3959 0.87281,-0.42196 0.477966,-0.0246 0.774523,0.27226 0.200139,0.20035 0.256989,0.49124 0.05685,0.2909 -0.05293,0.59924 -0.108321,0.30981 -0.355464,0.5567 z m -0.124174,-0.1243 q 0.299788,-0.29948 0.364313,-0.71163 0.06452,-0.41214 -0.21158,-0.68853 -0.258575,-0.25885 -0.670777,-0.21521 -0.409279,0.0436 -0.731002,0.36503 -0.342198,0.34185 -0.368718,0.75109 -0.0236,0.40924 0.217446,0.65054 0.276105,0.27639 0.686855,0.21375 0.412212,-0.0641 0.713463,-0.36504 z"
         id="path8" />
    </g>
  </g>
</svg>
